<?xml version="1.0" encoding="iso-8859-1"?>
<!-- Generator: Adobe Illustrator 19.0.0, SVG Export Plug-In . SVG Version: 6.00 Build 0)  -->
<svg xmlns="http://www.w3.org/2000/svg" xmlns:xlink="http://www.w3.org/1999/xlink" version="1.1" id="Capa_1" x="0px" y="0px" viewBox="0 0 546.949 546.949" style="enable-background:new 0 0 546.949 546.949;" xml:space="preserve" width="512px" height="512px">
<path d="M533.82,204.299h-46.81c-2.054-12.487-6.95-24.002-14.049-33.874l22.82-22.819c5.128-5.129,5.128-13.437,0-18.566  c-5.129-5.129-13.437-5.129-18.566,0l-22.821,22.821c-9.87-7.096-21.382-11.99-33.867-14.044V91.006  c0-7.252-5.878-13.129-13.129-13.129c-7.252,0-13.129,5.878-13.129,13.129v46.811c-12.486,2.055-23.997,6.947-33.868,14.043  l-22.82-22.82c-5.129-5.129-13.437-5.129-18.565,0c-5.129,5.129-5.129,13.437,0,18.566l22.818,22.818  c-5.472,7.609-9.637,16.189-12.208,25.448c-9.62,1.747-18.921,4.817-27.576,9.473c-22.366-32.373-59.19-51.975-99.112-51.975  c-66.468,0-120.54,54.067-120.54,120.535c0,6.616,0.549,13.211,1.631,19.735C37.362,295.599,0,334.178,0,381.321  c0,48.384,39.367,87.752,87.757,87.752h321.877c48.384,0,87.752-39.368,87.752-87.752c0-36.784-23.346-69.545-57.036-82.182  c0.328-2.784,0.421-5.53,0.489-8.272c4.793-2.191,9.325-4.831,13.561-7.876l22.815,22.814c2.564,2.565,5.923,3.846,9.283,3.846  c3.359,0,6.718-1.281,9.283-3.846c5.128-5.129,5.128-13.437,0-18.566l-22.816-22.815c7.095-9.871,11.99-21.383,14.044-33.867h46.81  c7.253,0,13.129-5.878,13.129-13.129C546.949,210.176,541.073,204.299,533.82,204.299z M471.127,381.321  c0,33.911-27.588,61.493-61.493,61.493H87.757c-33.912,0-61.498-27.582-61.498-61.493s27.587-61.504,61.498-61.504h30.905  l-5.492-17.14c-2.996-9.345-4.513-19.028-4.513-28.772c0-51.984,42.297-94.276,94.281-94.276c34.937,0,66.847,19.212,83.274,50.139  l7.196,13.539l12.278-9.201c6.497-4.869,13.682-8.365,21.235-10.652c6.303-1.907,12.853-3.01,19.574-3.01  c2.268,0,4.507,0.123,6.719,0.34c28.661,2.816,52.099,23.462,59.21,50.653c1.441,5.511,2.288,11.261,2.288,17.217  c0,3.012-0.283,6.098-0.73,9.216c-0.349,2.425-0.773,4.865-1.389,7.329l-3.288,13.17l13.279,2.852  C450.709,327.244,471.127,352.518,471.127,381.321z M437.314,262.919c-10.241-36.066-41.362-63.383-79.448-67.981  c8.595-18.839,27.507-32.027,49.532-32.027c30.059,0,54.518,24.454,54.518,54.519C461.916,236.439,452.105,253.16,437.314,262.919z" fill="#333333"/>
<g>
</g>
<g>
</g>
<g>
</g>
<g>
</g>
<g>
</g>
<g>
</g>
<g>
</g>
<g>
</g>
<g>
</g>
<g>
</g>
<g>
</g>
<g>
</g>
<g>
</g>
<g>
</g>
<g>
</g>
</svg>
