<?xml version="1.0" encoding="iso-8859-1"?>
<!-- Generator: Adobe Illustrator 19.0.0, SVG Export Plug-In . SVG Version: 6.00 Build 0)  -->
<svg xmlns="http://www.w3.org/2000/svg" xmlns:xlink="http://www.w3.org/1999/xlink" version="1.1" id="Capa_1" x="0px" y="0px" viewBox="0 0 497.382 497.382" style="enable-background:new 0 0 497.382 497.382;" xml:space="preserve" width="512px" height="512px">
<g>
	<path d="M106.574,338.397c-0.02,0-0.03,0-0.05,0c-7.253,0.03-13.11,5.929-13.079,13.181l0.318,83.546   c0.032,7.232,5.898,13.078,13.129,13.078c0.021,0,0.032,0,0.051,0c7.252-0.03,13.11-5.928,13.078-13.181l-0.318-83.546   C119.673,344.244,113.806,338.397,106.574,338.397z" fill="#FFFFFF"/>
	<path d="M221.663,337.956c-0.021,0-0.032,0-0.051,0c-7.252,0.032-13.11,5.929-13.078,13.181l0.318,83.546   c0.03,7.232,5.898,13.078,13.129,13.078c0.02,0,0.03,0,0.05,0c7.253-0.03,13.11-5.928,13.079-13.181l-0.318-83.546   C234.761,343.803,228.895,337.956,221.663,337.956z" fill="#FFFFFF"/>
	<path d="M279.207,337.74c-0.021,0-0.031,0-0.052,0c-7.252,0.03-13.108,5.929-13.078,13.181l0.492,128.228   c0.03,7.232,5.898,13.078,13.129,13.078c0.02,0,0.03,0,0.051,0c7.252-0.03,13.108-5.928,13.078-13.181l-0.492-128.228   C292.306,343.588,286.438,337.74,279.207,337.74z" fill="#FFFFFF"/>
	<path d="M164.119,338.171c-0.021,0-0.032,0-0.052,0c-7.252,0.031-13.109,5.929-13.078,13.181l0.491,128.238   c0.032,7.232,5.899,13.078,13.129,13.078c0.021,0,0.032,0,0.051,0c7.253-0.03,13.11-5.928,13.078-13.181l-0.491-128.238   C177.217,344.018,171.35,338.171,164.119,338.171z" fill="#FFFFFF"/>
	<path d="M336.699,337.514c-7.252,0.032-13.108,5.929-13.078,13.181l0.318,83.557c0.03,7.232,5.898,13.078,13.129,13.078   c0.02,0,0.03,0,0.051,0c7.252-0.03,13.108-5.928,13.078-13.181l-0.318-83.557C349.839,343.33,343.89,337.854,336.699,337.514z" fill="#FFFFFF"/>
	<path d="M390.643,337.31c-0.021,0-0.031,0-0.051,0c-7.252,0.03-13.11,5.929-13.078,13.181l0.164,41.778   c0.03,7.232,5.898,13.078,13.129,13.078c0.02,0,0.03,0,0.051,0c7.252-0.03,13.108-5.928,13.078-13.18l-0.164-41.779   C403.741,343.156,397.874,337.31,390.643,337.31z" fill="#FFFFFF"/>
	<path d="M440.658,151.374c0.431-3.529,0.646-7.027,0.656-10.473c0.205-52.098-42.014-94.635-94.44-94.84   c-15.561,0-30.587,3.775-44.158,11.006c-22.249-32.464-59.042-52.2-99.384-52.353c-66.202,0-120.268,53.861-120.524,120.062   c-0.032,6.627,0.492,13.222,1.548,19.746c-46.64,1.795-84.182,40.291-84.356,87.352c-0.093,23.439,8.944,45.512,25.458,62.15   c16.515,16.638,38.517,25.848,61.954,25.941l321.878,1.231h0.338c48.209,0,87.567-39.214,87.752-87.423   C497.515,196.988,474.302,164.145,440.658,151.374z M409.63,294.936v13.129l-0.236-13.129l-321.877-1.231   c-16.433-0.061-31.849-6.513-43.42-18.175c-11.571-11.663-17.899-27.131-17.837-43.553c0.123-33.777,27.715-61.258,61.728-61.258   l30.895,0.124l-5.426-17.161c-2.954-9.365-4.431-19.048-4.389-28.792c0.194-51.79,42.486-93.917,94.634-93.917   c34.937,0.133,66.775,19.458,83.085,50.435l7.149,13.571l12.309-9.15c11.888-8.842,25.941-13.509,40.856-13.509   c37.613,0.144,68.099,30.865,67.955,68.489c-0.021,5.405-0.728,10.811-2.174,16.535l-3.323,13.15l13.252,2.902   c28.105,6.134,48.414,31.48,48.312,60.273C471,267.457,443.407,294.936,409.63,294.936z" fill="#FFFFFF"/>
	<path d="M275.113,160.113c-0.02,0-0.03,0-0.05,0l-31.039,0.112l18.484-35.234c3.374-6.421,0.902-14.36-5.519-17.725   c-6.422-3.375-14.36-0.902-17.725,5.519l-28.618,54.549c-2.145,4.083-1.99,8.986,0.399,12.914c2.38,3.928,6.637,6.318,11.222,6.318   c0.02,0,0.031,0,0.052,0l31.141-0.112l-22.176,42.733c-3.344,6.441-0.831,14.359,5.601,17.704c1.939,1.005,4.001,1.477,6.042,1.477   c4.749,0,9.324-2.574,11.662-7.077l32.178-61.995c2.113-4.083,1.949-8.966-0.441-12.894   C283.935,162.492,279.689,160.113,275.113,160.113z" fill="#FFFFFF"/>
</g>
<g>
</g>
<g>
</g>
<g>
</g>
<g>
</g>
<g>
</g>
<g>
</g>
<g>
</g>
<g>
</g>
<g>
</g>
<g>
</g>
<g>
</g>
<g>
</g>
<g>
</g>
<g>
</g>
<g>
</g>
</svg>
